<svg width="508" height="120" viewBox="0 0 508 120" fill="none" xmlns="http://www.w3.org/2000/svg">
<path d="M508 20.452V93.957H490.331L464.331 48.2183V93.957H446.611V20.452H464.331L490.331 66.1907V20.452H508Z" fill="#0179D7"/>
<path d="M434.515 20.452V93.957H416.846V20.452H434.515Z" fill="#0179D7"/>
<path d="M343.16 87.2931L357.8 20.452H366.534L371.279 26.1567L355.68 93.957H346.037L343.16 87.2931ZM339.272 20.452L351.641 87.7979L348.46 93.957H337.303L321.704 20.452H339.272ZM379.306 87.4445L391.574 20.452H409.092L393.492 93.957H382.386L379.306 87.4445ZM372.844 20.452L387.838 87.6969L384.809 93.957H375.167L359.214 26.0558L364.161 20.452H372.844Z" fill="#0179D7"/>
<path d="M259.124 20.452H288.051C293.705 20.452 298.619 21.2934 302.792 22.9762C306.966 24.659 310.18 27.1496 312.435 30.4479C314.723 33.7462 315.868 37.8186 315.868 42.6651C315.868 46.8721 315.211 50.3891 313.899 53.2163C312.586 56.0434 310.752 58.3825 308.396 60.2336C306.074 62.051 303.364 63.5487 300.268 64.7266L294.462 68.0081H270.18L270.079 54.3269H288.051C290.306 54.3269 292.174 53.923 293.655 53.1153C295.136 52.3075 296.246 51.1632 296.987 49.6824C297.761 48.1678 298.148 46.3672 298.148 44.2806C298.148 42.1602 297.761 40.3428 296.987 38.8283C296.213 37.3137 295.068 36.1526 293.554 35.3449C292.073 34.5371 290.239 34.1332 288.051 34.1332H276.843V93.957H259.124V20.452ZM299.359 93.957L283.104 61.4452L301.884 61.3442L318.341 93.1997V93.957H299.359Z" fill="white"/>
<path d="M230.621 20.452H248.341V68.4625C248.341 74.184 247.146 79.0305 244.757 83.0019C242.367 86.9397 239.018 89.9182 234.71 91.9376C230.402 93.957 225.337 94.9667 219.514 94.9667C213.759 94.9667 208.694 93.957 204.319 91.9376C199.977 89.9182 196.578 86.9397 194.121 83.0019C191.698 79.0305 190.486 74.184 190.486 68.4625V20.452H208.257V68.4625C208.257 71.4915 208.694 73.9652 209.569 75.8836C210.444 77.7684 211.723 79.1483 213.406 80.0233C215.089 80.8984 217.125 81.3359 219.514 81.3359C221.938 81.3359 223.974 80.8984 225.623 80.0233C227.272 79.1483 228.517 77.7684 229.359 75.8836C230.2 73.9652 230.621 71.4915 230.621 68.4625V20.452Z" fill="white"/>
<path d="M179.904 20.452V93.957H162.235L136.235 48.2183V93.957H118.515V20.452H136.235L162.235 66.1907V20.452H179.904Z" fill="white"/>
<path d="M67.2124 66.3539C72.759 81.9185 68.4358 93.0097 65.5809 96.6096C65.824 84.0817 57.2186 79.0408 52.8854 78.0864C52.0745 76.8174 51.2433 73.0067 50.9291 71.2599C49.6654 64.6209 49.7905 49.2012 60.4006 40.6341C68.0274 34.476 77.3261 35.0671 83.7393 37.0847C85.6341 37.5731 87.5922 38.4184 89.5674 39.722C89.6014 39.7444 89.6349 39.7666 89.668 39.7888C89.6345 39.7664 89.6009 39.7442 89.5674 39.722C88.2137 38.8324 86.1866 37.8547 83.7393 37.0847C75.7786 35.0332 68.9355 39.2832 66.6343 42.3217C64.5159 43.8472 61.6658 50.7893 67.2124 66.3539Z" fill="url(#paint0_linear_272_1434)"/>
<g filter="url(#filter0_d_272_1434)">
<path d="M60.0126 41.3272C71.7076 31.7206 85.318 36.8303 90.1909 40.3109C87.6848 31.9574 76.11 29.8411 69.4104 30.8852C67.8441 31.0593 62.2944 30.9987 53.6599 35.062C44.7842 39.2388 35.9086 49.6808 32.3414 56.468C27.555 64.2995 25.4666 75.7857 26.0762 82.0508C26.584 87.2687 26.5983 89.9867 37.0403 96.6696C47.4822 103.352 51.1369 109.548 51.659 111.81C61.2656 104.292 57.3146 88.8381 52.7032 77.3519C50.2668 69.3464 48.3176 50.9338 60.0126 41.3272Z" fill="url(#paint1_linear_272_1434)"/>
</g>
<g filter="url(#filter1_d_272_1434)">
<path d="M32.4163 56.7041C26.1511 66.7284 25.281 80.7206 25.6291 86.4637C16.44 76.4394 17.2755 63.8395 18.8419 58.7925C13.4122 65.4754 9.61816 78.2842 8.39987 83.8532C2.97005 78.8411 2.65679 65.4058 3.17889 59.3146C3.52695 56.182 4.0442 48.6645 7.87777 39.4749C11.2853 31.3067 19.1899 22.0716 23.0186 18.591C18.0065 17.7556 10.4883 11.6297 7.35567 8.67113L15.5304 7.94084C23.5359 7.41874 41.8141 6.89598 50.1677 6.06062C58.5213 5.22527 60.9072 4.42883 65.8306 8.14902C67.7895 9.62915 67.919 9.92415 70.0074 12.8479C71.5431 14.9978 70.5295 17.8948 69.4853 18.591C68.2622 19.427 66.7704 19.4263 64.2644 18.591C61.7583 17.7556 57.303 17.1987 55.3887 17.0247C47.8705 16.607 43.9025 17.8948 42.8583 18.591C43.9025 18.765 47.244 19.844 52.2561 22.7678C57.2682 25.6915 59.3866 26.2143 60.6097 25.9003L66.8748 20.6794C66.8748 20.6794 68.1887 20.4841 68.9632 20.1573C70.4304 19.5382 72.0958 17.5468 72.0958 17.5468C76.4466 16.1545 86.4013 15.354 91.4134 23.2899C96.4256 31.2258 92.8057 39.823 90.3693 43.1296C90.5433 40.171 88.4897 33.7318 78.8831 31.6434C69.2765 29.555 58.1732 33.9059 53.8224 36.3423C49.2975 38.9528 38.6815 46.6799 32.4163 56.7041Z" fill="white"/>
</g>
<defs>
<filter id="filter0_d_272_1434" x="22.9729" y="28.6389" width="74.218" height="91.1715" filterUnits="userSpaceOnUse" color-interpolation-filters="sRGB">
<feFlood flood-opacity="0" result="BackgroundImageFix"/>
<feColorMatrix in="SourceAlpha" type="matrix" values="0 0 0 0 0 0 0 0 0 0 0 0 0 0 0 0 0 0 127 0" result="hardAlpha"/>
<feOffset dx="2" dy="3"/>
<feGaussianBlur stdDeviation="2.5"/>
<feComposite in2="hardAlpha" operator="out"/>
<feColorMatrix type="matrix" values="0 0 0 0 0 0 0 0 0 0 0 0 0 0 0 0 0 0 0.25 0"/>
<feBlend mode="normal" in2="BackgroundImageFix" result="effect1_dropShadow_272_1434"/>
<feBlend mode="normal" in="SourceGraphic" in2="effect1_dropShadow_272_1434" result="shape"/>
</filter>
<filter id="filter1_d_272_1434" x="0" y="0.360352" width="104.929" height="95.1034" filterUnits="userSpaceOnUse" color-interpolation-filters="sRGB">
<feFlood flood-opacity="0" result="BackgroundImageFix"/>
<feColorMatrix in="SourceAlpha" type="matrix" values="0 0 0 0 0 0 0 0 0 0 0 0 0 0 0 0 0 0 127 0" result="hardAlpha"/>
<feOffset dx="4" dy="2"/>
<feGaussianBlur stdDeviation="3.5"/>
<feComposite in2="hardAlpha" operator="out"/>
<feColorMatrix type="matrix" values="0 0 0 0 0 0 0 0 0 0 0 0 0 0 0 0 0 0 0.25 0"/>
<feBlend mode="normal" in2="BackgroundImageFix" result="effect1_dropShadow_272_1434"/>
<feBlend mode="normal" in="SourceGraphic" in2="effect1_dropShadow_272_1434" result="shape"/>
</filter>
<linearGradient id="paint0_linear_272_1434" x1="69.561" y1="35.5162" x2="68.3746" y2="96.6638" gradientUnits="userSpaceOnUse">
<stop stop-color="#0279D8"/>
<stop offset="1" stop-color="#0179D7"/>
</linearGradient>
<linearGradient id="paint1_linear_272_1434" x1="82.3595" y1="30.9132" x2="13.9646" y2="90.9544" gradientUnits="userSpaceOnUse">
<stop stop-color="#0078D6"/>
<stop offset="1" stop-color="#0179D7"/>
</linearGradient>
</defs>
</svg>
